<svg width="20" height="24" viewBox="0 0 20 24" fill="none" xmlns="http://www.w3.org/2000/svg">
<path d="M16.4532 8.22947V21.3704C16.4533 21.66 16.3758 21.9444 16.2287 22.1943C16.0816 22.4442 15.8702 22.6506 15.6163 22.7922C15.3624 22.9337 15.0752 23.0053 14.7842 22.9997C14.4933 22.994 14.2091 22.9112 13.9609 22.7599L9.57834 20.0894C9.32105 19.9324 9.02513 19.8493 8.72332 19.8493C8.42152 19.8493 8.1256 19.9324 7.8683 20.0894L3.49288 22.7575C3.24479 22.9088 2.96069 22.9915 2.66981 22.9972C2.37893 23.0029 2.09178 22.9314 1.83789 22.79C1.58401 22.6486 1.37255 22.4424 1.22529 22.1927C1.07802 21.943 1.00026 21.6588 1 21.3692V5.16375C1.00079 4.73204 1.17367 4.31828 1.48069 4.01329C1.78771 3.7083 2.20377 3.53701 2.63756 3.53701H11.858" stroke="#949494" stroke-linecap="round" stroke-linejoin="round"/>
<path d="M16.4677 1V6.0692" stroke="#949494" stroke-linecap="round" stroke-linejoin="round"/>
<path d="M13.9064 3.53452H19" stroke="#949494" stroke-linecap="round" stroke-linejoin="round"/>
</svg>
