<svg width="18" height="22" viewBox="0 0 18 22" fill="none" xmlns="http://www.w3.org/2000/svg">
<path d="M1 19.3244V2.67388C1.00016 2.22988 1.17887 1.80413 1.49682 1.49023C1.81477 1.17633 2.24594 1 2.6955 1H15.3045C15.7541 1 16.1852 1.17633 16.5032 1.49023C16.8211 1.80413 16.9998 2.22988 17 2.67388V19.3257C17.0001 19.6233 16.9198 19.9155 16.7675 20.1722C16.6152 20.429 16.3963 20.641 16.1335 20.7865C15.8706 20.9319 15.5732 21.0055 15.2719 20.9997C14.9707 20.9939 14.6764 20.9088 14.4195 20.7533L9.88186 18.0095C9.61546 17.8482 9.30907 17.7628 8.99659 17.7628C8.68411 17.7628 8.37771 17.8482 8.11132 18.0095L3.58109 20.7509C3.32421 20.9063 3.03006 20.9913 2.72889 20.9971C2.42772 21.003 2.13041 20.9295 1.86754 20.7842C1.60467 20.6389 1.38574 20.4271 1.23326 20.1706C1.08078 19.914 1.00027 19.6219 1 19.3244Z" fill="#FFC700" stroke="#FFC700" stroke-linecap="round" stroke-linejoin="round"/>
</svg>
