<svg width="24" height="16" viewBox="0 0 24 16" fill="none" xmlns="http://www.w3.org/2000/svg">
<path d="M11.9791 1C7.34347 1 3.98817 4.94953 1 8.10425C4.41107 11.7054 7.33185 14.9865 12 15C16.6803 15.008 19.726 11.5865 23 8.13124C19.6644 4.60977 16.6315 1 11.9791 1ZM12.0314 12.315C11.229 12.315 10.4446 12.0638 9.7774 11.5932C9.11023 11.1226 8.59023 10.4536 8.28316 9.67098C7.97609 8.88833 7.89575 8.02713 8.05229 7.19628C8.20883 6.36543 8.59523 5.60224 9.16261 5.00323C9.73 4.40422 10.4529 3.99629 11.2399 3.83103C12.0269 3.66576 12.8426 3.75058 13.5839 4.07476C14.3253 4.39894 14.9589 4.94793 15.4047 5.65229C15.8505 6.35665 16.0884 7.18476 16.0884 8.03188C16.0884 9.16785 15.661 10.2573 14.9001 11.0605C14.1393 11.8638 13.1074 12.315 12.0314 12.315Z" fill="#FFC700" stroke="#FFC700" stroke-linecap="round" stroke-linejoin="round"/>
<path d="M12.0314 10.539C11.5557 10.539 11.0908 10.3901 10.6953 10.1111C10.2998 9.83212 9.99155 9.43558 9.80952 8.97164C9.6275 8.5077 9.57987 7.9972 9.67267 7.50468C9.76546 7.01217 9.99451 6.55977 10.3308 6.20468C10.6672 5.8496 11.0957 5.60778 11.5622 5.50982C12.0287 5.41185 12.5123 5.46213 12.9517 5.6543C13.3912 5.84647 13.7668 6.1719 14.031 6.58943C14.2953 7.00696 14.4363 7.49785 14.4363 8.00002C14.4363 8.6734 14.183 9.3192 13.732 9.79535C13.2809 10.2715 12.6692 10.539 12.0314 10.539ZM12.0314 3.74875C11.229 3.74875 10.4446 3.99995 9.77743 4.47059C9.11026 4.94123 8.59026 5.61017 8.28319 6.39281C7.97612 7.17546 7.89578 8.03666 8.05232 8.86751C8.20886 9.69836 8.59526 10.4615 9.16264 11.0606C9.73003 11.6596 10.4529 12.0675 11.2399 12.2328C12.0269 12.398 12.8426 12.3132 13.584 11.989C14.3253 11.6648 14.9589 11.1159 15.4047 10.4115C15.8505 9.70714 16.0884 8.87903 16.0884 8.03191C16.0884 6.89594 15.661 5.8065 14.9002 5.00326C14.1393 4.20001 13.1074 3.74875 12.0314 3.74875Z" fill="#060606" stroke="#060606" stroke-miterlimit="10"/>
<path d="M13.7319 9.79529C14.6711 8.80375 14.6711 7.19616 13.7319 6.20462C12.7927 5.21309 11.27 5.21309 10.3308 6.20462C9.39161 7.19616 9.39161 8.80375 10.3308 9.79529C11.27 10.7868 12.7927 10.7868 13.7319 9.79529Z" fill="#FFC700"/>
</svg>
