<svg width="23" height="22" viewBox="0 0 23 22" fill="none" xmlns="http://www.w3.org/2000/svg">
<path d="M1.67183 20.8195C1.65562 20.8749 1.62125 20.923 1.57446 20.9557C1.52768 20.9885 1.47131 21.0038 1.41477 20.9992C1.35824 20.9946 1.30496 20.9703 1.26384 20.9305C1.22273 20.8906 1.19627 20.8375 1.18888 20.7801C0.491997 15.4327 1.68605 10.3139 5.39622 7.27974C7.48567 5.57004 9.74164 4.89451 11.3647 4.61873C11.6814 4.5656 11.9694 4.39948 12.1773 4.14997C12.3852 3.90045 12.4996 3.58372 12.5001 3.25617V1.50837C12.5002 1.41175 12.5272 1.31714 12.578 1.23561C12.6288 1.15409 12.7013 1.08902 12.7871 1.04803C12.8728 1.00704 12.9682 0.991827 13.0621 1.00416C13.156 1.0165 13.2445 1.05588 13.3173 1.11769L21.8967 8.42579C21.929 8.45315 21.955 8.48743 21.9729 8.52622C21.9907 8.565 22 8.60732 22 8.65016C22 8.69301 21.9907 8.73533 21.9729 8.77411C21.955 8.81289 21.929 8.84718 21.8967 8.87454L13.1306 16.248C13.0614 16.3046 12.9779 16.3402 12.8898 16.3508C12.8016 16.3614 12.7124 16.3466 12.6321 16.3079C12.5518 16.2693 12.4838 16.2085 12.4357 16.1323C12.3877 16.0562 12.3615 15.9678 12.3603 15.8772V13.4249C12.3604 13.3243 12.3398 13.2249 12.2998 13.133C12.2598 13.0411 12.2012 12.9588 12.128 12.8916C12.0548 12.8243 11.9685 12.7736 11.8748 12.7426C11.781 12.7116 11.6819 12.7011 11.584 12.7118C10.1849 12.8654 7.8353 13.3916 5.32985 15.3124C2.95063 17.14 2.09731 19.3698 1.67183 20.8195Z" fill="#FFC700" stroke="#FFC700" stroke-linecap="round" stroke-linejoin="round"/>
</svg>
